<svg width="31" height="32" viewBox="0 0 31 32" fill="none" xmlns="http://www.w3.org/2000/svg">
<path d="M2.04212 5.14009C2.73675 3.86659 3.71214 2.86058 4.95874 2.13447C6.21772 1.37473 7.65372 1.00491 9.24248 1.00491C10.8546 1.00491 12.3044 1.37346 13.5655 2.13447C14.8121 2.86058 15.7875 3.8666 16.4821 5.14009C17.1786 6.41687 17.5194 7.84272 17.5194 9.39973V23.1112C17.5194 23.6882 17.6565 24.1928 17.9227 24.6431C18.2004 25.1132 18.5562 25.478 18.9931 25.75C19.4509 26.019 19.9288 26.1492 20.4395 26.1492C20.9524 26.1492 21.4137 26.018 21.8399 25.7541C22.2743 25.4852 22.6136 25.1266 22.8647 24.6662L22.8711 24.6545L22.8779 24.6431C23.1439 24.1928 23.2811 23.6882 23.2811 23.1112V2.24932V1.47637H24.054H27.8257H28.5986V2.24932V22.6004C28.5986 24.1574 28.2578 25.5833 27.5613 26.8601C26.8695 28.1284 25.9124 29.1447 24.6966 29.8973L24.6908 29.9009L24.6851 29.9043C23.4489 30.6402 22.0248 30.9953 20.4395 30.9953C18.8539 30.9953 17.4201 30.64 16.1615 29.9084L16.1523 29.9029L16.1432 29.8973C14.9275 29.1447 13.9702 28.1284 13.2785 26.8601C12.582 25.5833 12.2412 24.1574 12.2412 22.6004V8.88898C12.2412 8.31198 12.104 7.80739 11.838 7.35708C11.5637 6.89312 11.199 6.52841 10.7351 6.25424C10.2801 5.9854 9.78764 5.85099 9.24248 5.85099C8.70001 5.85099 8.20978 5.98405 7.75672 6.2502C7.3234 6.51992 6.96991 6.88107 6.69316 7.34556C6.44962 7.79668 6.32236 8.30582 6.32236 8.88898V29.7508V30.5238H5.54941H1.77777H1.00482V29.7508V9.39973C1.00482 7.84272 1.34569 6.41687 2.04212 5.14009ZM2.04212 5.14009L2.70834 5.50348" stroke="url(#paint0_linear_381_393)" stroke-width="1.54589"/>
<defs>
<linearGradient id="paint0_linear_381_393" x1="30.348" y1="0.284945" x2="0.063541" y2="32.2064" gradientUnits="userSpaceOnUse">
<stop stop-color="#BEF264"/>
<stop offset="1" stop-color="#89C324"/>
</linearGradient>
</defs>
</svg>
